<svg width="21" height="12" viewBox="0 0 21 12" fill="none" xmlns="http://www.w3.org/2000/svg">
<path d="M14.258 0.00065065C14.1238 0.00697903 13.9944 0.0529879 13.8864 0.132853C13.7783 0.212718 13.6964 0.322848 13.651 0.449301C13.6055 0.575754 13.5986 0.712844 13.6312 0.843215C13.6637 0.973587 13.7342 1.09138 13.8337 1.18168L17.9779 4.98642H0.715071C0.691519 4.98529 0.667903 4.98529 0.644351 4.98642C0.28883 5.00487 -0.017719 5.34517 0.000797557 5.7007C0.019314 6.0562 0.359557 6.36283 0.715071 6.34425H17.9779L13.8337 10.1419C13.763 10.2009 13.7051 10.2735 13.6634 10.3555C13.6217 10.4375 13.5971 10.5272 13.5911 10.619C13.5851 10.7108 13.5978 10.8028 13.6285 10.8896C13.6591 10.9763 13.7071 11.0559 13.7694 11.1235C13.8318 11.1912 13.9073 11.2454 13.9912 11.283C14.0752 11.3206 14.1659 11.3407 14.2579 11.3422C14.3499 11.3436 14.4412 11.3264 14.5263 11.2915C14.6114 11.2566 14.6886 11.2047 14.753 11.1391L20.1843 6.16038C20.2531 6.09681 20.308 6.0197 20.3455 5.93389C20.383 5.84809 20.4024 5.75545 20.4024 5.6618C20.4024 5.56815 20.383 5.47551 20.3455 5.38971C20.308 5.30391 20.2531 5.2268 20.1843 5.16322L14.753 0.184523C14.687 0.122364 14.6091 0.0740678 14.5241 0.0424871C14.4391 0.0109064 14.3486 -0.00331902 14.258 0.00065065Z" fill="#3C4BA6"/>
</svg>
