<svg width="22" height="12" viewBox="0 0 22 12" fill="none" xmlns="http://www.w3.org/2000/svg">
<path d="M15.0571 0.00065065C14.9228 0.00697903 14.7935 0.0529879 14.6855 0.132853C14.5774 0.212718 14.4955 0.322848 14.45 0.449301C14.4046 0.575754 14.3977 0.712844 14.4302 0.843215C14.4628 0.973587 14.5332 1.09138 14.6327 1.18168L18.7769 4.98642H1.51414C1.49059 4.98529 1.46698 4.98529 1.44342 4.98642C1.0879 5.00487 0.781353 5.34517 0.79987 5.7007C0.818386 6.0562 1.15863 6.36283 1.51414 6.34425H18.7769L14.6327 10.1419C14.5621 10.2009 14.5042 10.2735 14.4625 10.3555C14.4208 10.4375 14.3962 10.5272 14.3902 10.619C14.3842 10.7108 14.3969 10.8028 14.4275 10.8896C14.4582 10.9763 14.5062 11.0559 14.5685 11.1235C14.6309 11.1912 14.7063 11.2454 14.7903 11.283C14.8743 11.3206 14.965 11.3407 15.057 11.3422C15.149 11.3436 15.2403 11.3264 15.3254 11.2915C15.4105 11.2566 15.4876 11.2047 15.5521 11.1391L20.9834 6.16038C21.0522 6.09681 21.1071 6.0197 21.1446 5.93389C21.1821 5.84809 21.2015 5.75545 21.2015 5.6618C21.2015 5.56815 21.1821 5.47551 21.1446 5.38971C21.1071 5.30391 21.0522 5.2268 20.9834 5.16322L15.5521 0.184523C15.486 0.122364 15.4082 0.0740678 15.3232 0.0424871C15.2382 0.0109064 15.1477 -0.00331902 15.0571 0.00065065Z" fill="#3C4BA6"/>
</svg>
