<svg width="160" height="160" viewBox="0 0 160 160" fill="none" xmlns="http://www.w3.org/2000/svg">
<g filter="url(#filter0_d_0_289)">
<rect x="30.0002" y="10" width="100" height="100" rx="5" fill="#3C4BA6"/>
</g>
<path d="M89.9243 54.9684C90.8242 57.0253 91.3384 59.275 91.3384 61.7176C91.3384 70.9093 83.8822 78.3656 74.6904 78.3656C65.4986 78.3656 58.0423 70.9093 58.0423 61.7176C58.0423 52.4615 65.4986 45.0052 74.6904 45.0052C77.0687 45.0052 79.3827 45.5195 81.4396 46.4194L85.4891 41.5985C82.2752 39.863 78.6114 38.8988 74.7547 38.8988C62.2204 38.8988 52.0002 49.119 52.0002 61.6533C52.0002 69.6881 56.2425 76.8229 62.5418 80.8082L59.0065 87.0432C58.6851 87.6217 58.6851 88.393 59.0065 89.0358C59.3279 89.6143 60.035 90 60.6777 90H88.703C89.4101 90 90.0529 89.6143 90.3743 89.0358C90.6956 88.4573 90.7599 87.6859 90.3743 87.0432L86.839 80.8082C93.2025 76.7587 97.3806 69.6881 97.3806 61.6533C97.3806 57.7966 96.4164 54.1327 94.6809 50.9188L89.9243 54.9684Z" fill="white"/>
<path d="M77.9685 50.5331C76.9401 50.2118 75.7831 50.0189 74.6904 50.0189C68.2625 50.0189 63.056 55.2255 63.056 61.6533C63.056 68.0168 68.2625 73.2876 74.6904 73.2876C81.0539 73.2876 86.3247 68.0811 86.3247 61.6533C86.3247 60.4963 86.1319 59.4035 85.8748 58.3751L77.9685 64.9315C76.0402 66.5384 73.0834 66.2813 71.4764 64.353C69.998 62.6174 70.0623 60.1106 71.4764 58.4394L77.9685 50.5331Z" fill="white"/>
<path d="M107.279 36.5205C107.151 36.1349 106.765 35.8778 106.315 35.8778H100.466V30.0285C100.466 29.6428 100.209 29.2571 99.8232 29.0643C99.4375 28.9357 98.9876 29 98.7305 29.2571L91.7241 36.2634C91.5313 36.4563 91.4027 36.7134 91.4027 36.9705V40.8915L73.4049 60.3678C72.7621 61.0748 72.7621 62.1675 73.4049 62.8746C74.1119 63.6459 75.2689 63.6459 75.976 62.9389L95.388 44.8767H99.309C99.5661 44.8767 99.8232 44.7482 100.016 44.5553L107.022 37.549C107.344 37.3562 107.408 36.9062 107.279 36.5205Z" fill="white"/>
<defs>
<filter id="filter0_d_0_289" x="0.000244141" y="0" width="160" height="160" filterUnits="userSpaceOnUse" color-interpolation-filters="sRGB">
<feFlood flood-opacity="0" result="BackgroundImageFix"/>
<feColorMatrix in="SourceAlpha" type="matrix" values="0 0 0 0 0 0 0 0 0 0 0 0 0 0 0 0 0 0 127 0" result="hardAlpha"/>
<feOffset dy="20"/>
<feGaussianBlur stdDeviation="15"/>
<feColorMatrix type="matrix" values="0 0 0 0 0.76875 0 0 0 0 0.781132 0 0 0 0 0.85625 0 0 0 0.4 0"/>
<feBlend mode="normal" in2="BackgroundImageFix" result="effect1_dropShadow_0_289"/>
<feBlend mode="normal" in="SourceGraphic" in2="effect1_dropShadow_0_289" result="shape"/>
</filter>
</defs>
</svg>
