<svg width="160" height="160" viewBox="0 0 160 160" fill="none" xmlns="http://www.w3.org/2000/svg">
<g filter="url(#filter0_d_0_276)">
<rect x="30.0002" y="10" width="100" height="100" rx="5" fill="#3C4BA6"/>
</g>
<path d="M95.0477 49.48H109.658C110.327 49.48 110.875 48.9321 110.875 48.2625V33.6525C110.875 32.9829 110.327 32.435 109.658 32.435H95.0477C94.3781 32.435 93.8302 32.9829 93.8302 33.6525V39.74H86.4035C85.9165 37.3537 84.0415 35.4787 81.6552 34.9917V31.2175C81.6552 30.5479 81.1074 30 80.4377 30C79.7681 30 79.2202 30.5479 79.2202 31.2175V34.9917C76.4443 35.5518 74.3502 38.0111 74.3502 40.9575C74.3502 43.9038 76.4443 46.351 79.2202 46.9233V54.4718C76.8339 54.9587 74.959 56.8337 74.472 59.22H67.0452V53.1325C67.0452 52.4629 66.4974 51.915 65.8277 51.915H51.2177C50.5481 51.915 50.0002 52.4629 50.0002 53.1325V67.7425C50.0002 68.4121 50.5481 68.96 51.2177 68.96H65.8277C66.4974 68.96 67.0452 68.4121 67.0452 67.7425V61.655H74.472C74.959 64.0413 76.8339 65.9162 79.2202 66.4032V73.9517C76.4443 74.5118 74.3502 76.9711 74.3502 79.9175C74.3502 82.8638 76.4443 85.311 79.2202 85.8832V89.6575C79.2202 90.3271 79.7681 90.875 80.4377 90.875C81.1074 90.875 81.6552 90.3271 81.6552 89.6575V85.8832C84.0415 85.3962 85.9165 83.5213 86.4035 81.135H93.8302V87.2225C93.8302 87.8921 94.3781 88.44 95.0477 88.44H109.658C110.327 88.44 110.875 87.8921 110.875 87.2225V72.6125C110.875 71.9429 110.327 71.395 109.658 71.395H95.0477C94.3781 71.395 93.8302 71.9429 93.8302 72.6125V78.7H86.4035C85.9165 76.3137 84.0415 74.4387 81.6552 73.9517V66.4032C84.4311 65.8432 86.5252 63.3839 86.5252 60.4375C86.5252 57.4911 84.4311 55.044 81.6552 54.4718V46.9233C84.0415 46.4362 85.9165 44.5613 86.4035 42.175H93.8302V48.2625C93.8302 48.9321 94.3781 49.48 95.0477 49.48Z" fill="white"/>
<defs>
<filter id="filter0_d_0_276" x="0.000244141" y="0" width="160" height="160" filterUnits="userSpaceOnUse" color-interpolation-filters="sRGB">
<feFlood flood-opacity="0" result="BackgroundImageFix"/>
<feColorMatrix in="SourceAlpha" type="matrix" values="0 0 0 0 0 0 0 0 0 0 0 0 0 0 0 0 0 0 127 0" result="hardAlpha"/>
<feOffset dy="20"/>
<feGaussianBlur stdDeviation="15"/>
<feColorMatrix type="matrix" values="0 0 0 0 0.76875 0 0 0 0 0.781132 0 0 0 0 0.85625 0 0 0 0.4 0"/>
<feBlend mode="normal" in2="BackgroundImageFix" result="effect1_dropShadow_0_276"/>
<feBlend mode="normal" in="SourceGraphic" in2="effect1_dropShadow_0_276" result="shape"/>
</filter>
</defs>
</svg>
