<svg width="79" height="22" viewBox="0 0 79 22" fill="none" xmlns="http://www.w3.org/2000/svg">
<path d="M0.932007 0.699999H9.47201C11.1333 0.699999 12.5053 1.176 13.588 2.128C14.6707 3.06133 15.212 4.89067 15.212 7.616C15.212 12.3573 13.3173 14.728 9.52801 14.728C8.94934 14.728 8.10001 14.6813 6.98001 14.588C5.86001 14.4947 4.99201 14.4013 4.37601 14.308V21.364H0.932007V0.699999ZM9.02401 11.592C9.88267 11.592 10.5453 11.284 11.012 10.668C11.4973 10.052 11.74 9.044 11.74 7.644C11.74 5.08667 10.872 3.808 9.13601 3.808H4.37601V11.592H9.02401Z" fill="#191919"/>
<path d="M24.1226 21.504C22.4612 21.504 21.1546 21.28 20.2026 20.832C19.2692 20.3653 18.5879 19.5907 18.1586 18.508C17.7479 17.4067 17.5426 15.8573 17.5426 13.86C17.5426 11.8253 17.7386 10.2573 18.1306 9.156C18.5412 8.05467 19.2039 7.28 20.1186 6.832C21.0519 6.384 22.3586 6.16 24.0386 6.16C25.5132 6.16 26.6799 6.30933 27.5386 6.608C28.3972 6.90667 29.0226 7.42933 29.4146 8.176C29.8066 8.904 30.0026 9.93067 30.0026 11.256C30.0026 12.6373 29.6012 13.6267 28.7986 14.224C28.0146 14.8213 26.8666 15.12 25.3546 15.12H20.9586C20.9959 16.0907 21.1266 16.8467 21.3506 17.388C21.5746 17.9107 21.9666 18.2933 22.5266 18.536C23.1052 18.7787 23.9359 18.9 25.0186 18.9H29.5546V20.944C28.5466 21.1307 27.6412 21.2707 26.8386 21.364C26.0546 21.4573 25.1492 21.504 24.1226 21.504ZM25.0186 13.02C25.6906 13.02 26.1759 12.8893 26.4746 12.628C26.7732 12.3667 26.9226 11.9093 26.9226 11.256C26.9226 10.2853 26.7079 9.61333 26.2786 9.24C25.8492 8.86667 25.1026 8.68 24.0386 8.68C23.2359 8.68 22.6106 8.81067 22.1626 9.072C21.7332 9.31467 21.4159 9.744 21.2106 10.36C21.0239 10.976 20.9306 11.8627 20.9306 13.02H25.0186Z" fill="#191919"/>
<path d="M41.1483 21.532C40.215 21.532 39.375 21.392 38.6283 21.112C37.9003 20.8133 37.2097 20.412 36.5563 19.908L35.9683 21.364H33.0843V0H36.5563V7.504C37.2657 7.112 38.0123 6.79467 38.7963 6.552C39.599 6.29067 40.327 6.16 40.9803 6.16C42.2497 6.16 43.2763 6.42133 44.0603 6.944C44.8443 7.46667 45.4137 8.30667 45.7683 9.464C46.1417 10.6027 46.3283 12.1147 46.3283 14C46.3283 16.5013 45.9083 18.3867 45.0683 19.656C44.2283 20.9067 42.9217 21.532 41.1483 21.532ZM39.8883 18.704C40.8403 18.704 41.5683 18.3213 42.0723 17.556C42.595 16.7907 42.8563 15.5493 42.8563 13.832C42.8563 12.488 42.7257 11.4613 42.4643 10.752C42.2217 10.0427 41.8857 9.56667 41.4563 9.324C41.0457 9.08133 40.523 8.96 39.8883 8.96C38.843 8.96 37.7323 9.28667 36.5563 9.94V17.78C37.7137 18.396 38.8243 18.704 39.8883 18.704Z" fill="#191919"/>
<path d="M55.6805 21.504C54.0565 21.504 52.7592 21.2707 51.7885 20.804C50.8179 20.3373 50.0992 19.5533 49.6325 18.452C49.1845 17.3507 48.9605 15.8107 48.9605 13.832C48.9605 11.7787 49.1845 10.2013 49.6325 9.1C50.0992 7.99867 50.8085 7.23333 51.7605 6.804C52.7312 6.37467 54.0379 6.16 55.6805 6.16C57.3419 6.16 58.6485 6.384 59.6005 6.832C60.5712 7.26133 61.2899 8.036 61.7565 9.156C62.2232 10.2573 62.4565 11.816 62.4565 13.832C62.4565 15.848 62.2325 17.4067 61.7845 18.508C61.3365 19.6093 60.6272 20.384 59.6565 20.832C58.6859 21.28 57.3605 21.504 55.6805 21.504ZM55.6805 18.732C56.5205 18.732 57.1645 18.62 57.6125 18.396C58.0792 18.172 58.4245 17.7147 58.6485 17.024C58.8725 16.3147 58.9845 15.2413 58.9845 13.804C58.9845 12.3853 58.8725 11.3307 58.6485 10.64C58.4245 9.93067 58.0792 9.47333 57.6125 9.268C57.1645 9.044 56.5205 8.932 55.6805 8.932C54.8592 8.932 54.2152 9.044 53.7485 9.268C53.3005 9.47333 52.9645 9.93067 52.7405 10.64C52.5165 11.3307 52.4045 12.3853 52.4045 13.804C52.4045 15.2413 52.5165 16.3147 52.7405 17.024C52.9645 17.7147 53.3005 18.172 53.7485 18.396C54.2152 18.62 54.8592 18.732 55.6805 18.732Z" fill="#191919"/>
<path d="M71.8133 21.504C70.1893 21.504 68.892 21.2707 67.9213 20.804C66.9507 20.3373 66.232 19.5533 65.7654 18.452C65.3174 17.3507 65.0934 15.8107 65.0934 13.832C65.0934 11.7787 65.3174 10.2013 65.7654 9.1C66.232 7.99867 66.9413 7.23333 67.8933 6.804C68.864 6.37467 70.1707 6.16 71.8133 6.16C73.4747 6.16 74.7813 6.384 75.7334 6.832C76.704 7.26133 77.4227 8.036 77.8894 9.156C78.356 10.2573 78.5894 11.816 78.5894 13.832C78.5894 15.848 78.3653 17.4067 77.9174 18.508C77.4694 19.6093 76.76 20.384 75.7894 20.832C74.8187 21.28 73.4933 21.504 71.8133 21.504ZM71.8133 18.732C72.6534 18.732 73.2974 18.62 73.7454 18.396C74.212 18.172 74.5574 17.7147 74.7813 17.024C75.0053 16.3147 75.1173 15.2413 75.1173 13.804C75.1173 12.3853 75.0053 11.3307 74.7813 10.64C74.5574 9.93067 74.212 9.47333 73.7454 9.268C73.2974 9.044 72.6534 8.932 71.8133 8.932C70.992 8.932 70.348 9.044 69.8813 9.268C69.4333 9.47333 69.0974 9.93067 68.8734 10.64C68.6494 11.3307 68.5374 12.3853 68.5374 13.804C68.5374 15.2413 68.6494 16.3147 68.8734 17.024C69.0974 17.7147 69.4333 18.172 69.8813 18.396C70.348 18.62 70.992 18.732 71.8133 18.732Z" fill="#191919"/>
</svg>
