<svg width="117" height="32" viewBox="0 0 117 32" fill="none" xmlns="http://www.w3.org/2000/svg">
<path d="M19.6758 11.0781C19.6758 14.0599 18.6992 16.3451 16.7461 17.9336C14.793 19.5221 12.013 20.3164 8.40625 20.3164H5.4375V31H0.769531V2.44531H8.99219C12.5599 2.44531 15.2292 3.17448 17 4.63281C18.7839 6.09115 19.6758 8.23958 19.6758 11.0781ZM5.4375 16.3906H7.91797C10.3138 16.3906 12.0716 15.974 13.1914 15.1406C14.3112 14.3073 14.8711 13.0052 14.8711 11.2344C14.8711 9.59375 14.3698 8.36979 13.3672 7.5625C12.3646 6.75521 10.8021 6.35156 8.67969 6.35156H5.4375V16.3906Z" fill="white"/>
<path d="M34.3242 31.3906C30.9648 31.3906 28.3346 30.4141 26.4336 28.4609C24.5456 26.4948 23.6016 23.793 23.6016 20.3555C23.6016 16.8268 24.4805 14.0534 26.2383 12.0352C27.9961 10.0169 30.4115 9.00781 33.4844 9.00781C36.3359 9.00781 38.5885 9.8737 40.2422 11.6055C41.8958 13.3372 42.7227 15.7201 42.7227 18.7539V21.2344H28.3281C28.3932 23.3307 28.9596 24.9453 30.0273 26.0781C31.0951 27.1979 32.599 27.7578 34.5391 27.7578C35.8151 27.7578 37 27.6406 38.0938 27.4062C39.2005 27.1589 40.3854 26.7552 41.6484 26.1953V29.9258C40.5286 30.4596 39.3958 30.8372 38.25 31.0586C37.1042 31.2799 35.7956 31.3906 34.3242 31.3906ZM33.4844 12.4844C32.026 12.4844 30.8542 12.9466 29.9688 13.8711C29.0964 14.7956 28.5755 16.1432 28.4062 17.9141H38.2109C38.1849 16.1302 37.7552 14.7826 36.9219 13.8711C36.0885 12.9466 34.9427 12.4844 33.4844 12.4844Z" fill="white"/>
<path d="M58.9727 9.00781C61.668 9.00781 63.7643 9.98438 65.2617 11.9375C66.7721 13.8906 67.5273 16.6315 67.5273 20.1602C67.5273 23.7018 66.7656 26.4622 65.2422 28.4414C63.7188 30.4076 61.6029 31.3906 58.8945 31.3906C56.1602 31.3906 54.0378 30.4076 52.5273 28.4414H52.2148L51.375 31H47.9375V0.609375H52.5273V7.83594C52.5273 8.36979 52.5013 9.16406 52.4492 10.2188C52.3971 11.2734 52.3581 11.944 52.332 12.2305H52.5273C53.9857 10.082 56.1341 9.00781 58.9727 9.00781ZM57.7812 12.7578C55.9323 12.7578 54.5977 13.3047 53.7773 14.3984C52.9701 15.4792 52.5534 17.2956 52.5273 19.8477V20.1602C52.5273 22.7904 52.944 24.6979 53.7773 25.8828C54.6107 27.0547 55.9714 27.6406 57.8594 27.6406C59.487 27.6406 60.7174 26.9961 61.5508 25.707C62.3971 24.418 62.8203 22.556 62.8203 20.1211C62.8203 15.2122 61.1406 12.7578 57.7812 12.7578Z" fill="white"/>
<path d="M92.0195 20.1602C92.0195 23.6888 91.1146 26.4427 89.3047 28.4219C87.4948 30.401 84.9753 31.3906 81.7461 31.3906C79.7279 31.3906 77.944 30.9349 76.3945 30.0234C74.8451 29.112 73.6536 27.8034 72.8203 26.0977C71.987 24.3919 71.5703 22.4128 71.5703 20.1602C71.5703 16.6576 72.4688 13.9232 74.2656 11.957C76.0625 9.99089 78.5951 9.00781 81.8633 9.00781C84.9883 9.00781 87.4622 10.0169 89.2852 12.0352C91.1081 14.0404 92.0195 16.7487 92.0195 20.1602ZM76.2969 20.1602C76.2969 25.1471 78.1393 27.6406 81.8242 27.6406C85.4701 27.6406 87.293 25.1471 87.293 20.1602C87.293 15.2253 85.457 12.7578 81.7852 12.7578C79.8581 12.7578 78.4583 13.3958 77.5859 14.6719C76.7266 15.9479 76.2969 17.7773 76.2969 20.1602Z" fill="white"/>
<path d="M116.473 20.1602C116.473 23.6888 115.568 26.4427 113.758 28.4219C111.948 30.401 109.428 31.3906 106.199 31.3906C104.181 31.3906 102.397 30.9349 100.848 30.0234C99.2982 29.112 98.1068 27.8034 97.2734 26.0977C96.4401 24.3919 96.0234 22.4128 96.0234 20.1602C96.0234 16.6576 96.9219 13.9232 98.7188 11.957C100.516 9.99089 103.048 9.00781 106.316 9.00781C109.441 9.00781 111.915 10.0169 113.738 12.0352C115.561 14.0404 116.473 16.7487 116.473 20.1602ZM100.75 20.1602C100.75 25.1471 102.592 27.6406 106.277 27.6406C109.923 27.6406 111.746 25.1471 111.746 20.1602C111.746 15.2253 109.91 12.7578 106.238 12.7578C104.311 12.7578 102.911 13.3958 102.039 14.6719C101.18 15.9479 100.75 17.7773 100.75 20.1602Z" fill="white"/>
</svg>
