<svg width="220" height="40" viewBox="0 0 220 40" fill="none" xmlns="http://www.w3.org/2000/svg">
<circle cx="20" cy="20" r="20" fill="#3C4BA6"/>
<path d="M21.8467 29V21.2581H24.5122L24.9084 18.2269H21.8467V16.2962C21.8467 15.4215 22.0954 14.8226 23.3766 14.8226H25V12.1201C24.2101 12.0372 23.4162 11.9971 22.6218 12.0002C20.2657 12.0002 18.6481 13.4095 18.6481 15.9967V18.2212H16V21.2524H18.6539V29H21.8467Z" fill="white"/>
<circle cx="80" cy="20" r="19.5" stroke="white"/>
<path d="M80.498 16.6518C78.3685 16.6518 76.6498 18.3704 76.6498 20.5C76.6498 22.6296 78.3685 24.3482 80.498 24.3482C82.6275 24.3482 84.3461 22.6296 84.3461 20.5C84.3461 18.3704 82.6275 16.6518 80.498 16.6518ZM80.498 23.0011C79.1208 23.0011 77.997 21.8772 77.997 20.5C77.997 19.1228 79.1208 17.9989 80.498 17.9989C81.8751 17.9989 82.999 19.1228 82.999 20.5C82.999 21.8772 81.8751 23.0011 80.498 23.0011ZM84.5037 15.5973C84.0065 15.5973 83.605 15.9988 83.605 16.496C83.605 16.9933 84.0065 17.3948 84.5037 17.3948C85.0009 17.3948 85.4025 16.9951 85.4025 16.496C85.4026 16.378 85.3795 16.261 85.3343 16.1519C85.2892 16.0428 85.223 15.9437 85.1396 15.8602C85.0561 15.7767 84.9569 15.7105 84.8478 15.6654C84.7387 15.6203 84.6218 15.5972 84.5037 15.5973ZM87.9992 20.5C87.9992 19.4643 88.0085 18.438 87.9504 17.4042C87.8922 16.2033 87.6183 15.1376 86.7402 14.2595C85.8603 13.3796 84.7964 13.1075 83.5956 13.0493C82.56 12.9912 81.5337 13.0006 80.4999 13.0006C79.4642 13.0006 78.4379 12.9912 77.4041 13.0493C76.2033 13.1075 75.1376 13.3814 74.2595 14.2595C73.3796 15.1395 73.1075 16.2033 73.0493 17.4042C72.9912 18.4399 73.0006 19.4662 73.0006 20.5C73.0006 21.5338 72.9912 22.562 73.0493 23.5958C73.1075 24.7967 73.3814 25.8624 74.2595 26.7405C75.1395 27.6204 76.2033 27.8925 77.4041 27.9507C78.4398 28.0088 79.4661 27.9994 80.4999 27.9994C81.5355 27.9994 82.5618 28.0088 83.5956 27.9507C84.7964 27.8925 85.8621 27.6186 86.7402 26.7405C87.6202 25.8605 87.8922 24.7967 87.9504 23.5958C88.0104 22.562 87.9992 21.5357 87.9992 20.5ZM86.3481 24.9242C86.2111 25.2657 86.046 25.5209 85.7815 25.7836C85.5169 26.0481 85.2636 26.2132 84.9221 26.3502C83.9352 26.7423 81.5918 26.6542 80.498 26.6542C79.4041 26.6542 77.0588 26.7423 76.072 26.3521C75.7305 26.2151 75.4753 26.05 75.2126 25.7854C74.9481 25.5209 74.783 25.2676 74.646 24.9261C74.2558 23.9373 74.3439 21.5939 74.3439 20.5C74.3439 19.4061 74.2558 17.0608 74.646 16.0739C74.783 15.7324 74.9481 15.4772 75.2126 15.2146C75.4772 14.9519 75.7305 14.7849 76.072 14.6479C77.0588 14.2577 79.4041 14.3458 80.498 14.3458C81.5918 14.3458 83.9371 14.2577 84.924 14.6479C85.2655 14.7849 85.5207 14.95 85.7833 15.2146C86.0479 15.4791 86.213 15.7324 86.35 16.0739C86.7402 17.0608 86.652 19.4061 86.652 20.5C86.652 21.5939 86.7402 23.9373 86.3481 24.9242Z" fill="white"/>
<circle cx="140" cy="20" r="19.5" stroke="white"/>
<path d="M149 13.7818C148.375 14.0747 147.695 14.2855 146.994 14.3676C147.721 13.8982 148.266 13.1565 148.526 12.2818C147.843 12.7229 147.095 13.0322 146.315 13.196C145.989 12.8175 145.595 12.516 145.157 12.3102C144.719 12.1045 144.247 11.9989 143.77 12C141.839 12 140.287 13.6997 140.287 15.7855C140.287 16.0784 140.319 16.3713 140.372 16.6531C137.481 16.4889 134.903 14.9889 133.189 12.6923C132.877 13.2717 132.713 13.9314 132.715 14.6028C132.715 15.9164 133.33 17.0747 134.268 17.7559C133.715 17.7323 133.175 17.5673 132.693 17.2744V17.321C132.693 19.1605 133.89 20.6849 135.485 21.0355C135.186 21.12 134.878 21.1633 134.568 21.1642C134.341 21.1642 134.127 21.1398 133.91 21.1065C134.352 22.6065 135.637 23.696 137.167 23.7315C135.97 24.75 134.47 25.3491 132.842 25.3491C132.55 25.3491 132.28 25.338 132 25.3025C133.545 26.3787 135.377 27 137.351 27C143.758 27 147.263 21.2352 147.263 16.2315C147.263 16.0673 147.263 15.9031 147.253 15.7389C147.931 15.1997 148.526 14.5318 149 13.7818Z" fill="white"/>
<circle cx="200" cy="20" r="19.5" stroke="white"/>
<path d="M193.188 15.376C194.396 15.376 195.376 14.3964 195.376 13.188C195.376 11.9796 194.396 11 193.188 11C191.98 11 191 11.9796 191 13.188C191 14.3964 191.98 15.376 193.188 15.376Z" fill="white"/>
<path d="M197.442 17.0334V29.1724H201.211V23.1694C201.211 21.5854 201.509 20.0514 203.473 20.0514C205.41 20.0514 205.434 21.8624 205.434 23.2694V29.1734H209.205V22.5164C209.205 19.2464 208.501 16.7334 204.679 16.7334C202.844 16.7334 201.614 17.7404 201.111 18.6934H201.06V17.0334H197.442ZM191.3 17.0334H195.075V29.1724H191.3V17.0334Z" fill="white"/>
</svg>
