<svg width="221" height="107" viewBox="0 0 221 107" fill="none" xmlns="http://www.w3.org/2000/svg">
<path d="M298.632 54.6632L298.633 54.6624C305.762 49.2131 308.209 44.8076 308.186 41.8025C308.165 39.0433 305.968 36.6754 301.378 35.396C292.248 32.8511 275.837 35.4787 261.668 46.3102C251.191 54.3491 238.658 62.7805 224.526 68.4891C219.908 70.4868 215.092 71.924 210.532 72.6562C208.862 72.9497 207.21 72.9363 205.907 72.4461L205.3 72.2176L205.05 71.6185L204.97 71.4261L204.941 71.3553L204.919 71.2819C204.685 70.5068 204.769 69.7093 204.952 69.009C205.139 68.297 205.462 67.5627 205.851 66.8409C206.627 65.3981 207.768 63.816 208.989 62.2737C210.217 60.7222 211.569 59.1567 212.792 57.7497C212.899 57.6272 213.004 57.5062 213.108 57.3865C214.214 56.1161 215.177 55.009 215.858 54.1421C222.476 45.6623 227.795 37.9594 229.562 30.4692C230.954 24.2759 229.915 18.856 226.928 14.3685C223.92 9.84804 218.847 6.14842 211.973 3.6244C198.208 -1.42924 177.55 -1.63487 153.317 5.39883C142.115 8.91116 130.918 12.7734 119.787 16.9645L119.772 16.97L119.757 16.9752C117.904 17.6291 116.46 18.0872 115.372 18.3104C114.827 18.422 114.3 18.4907 113.815 18.4711C113.333 18.4517 112.758 18.3397 112.258 17.9598C111.188 17.1463 111.291 15.8194 111.382 15.1419C111.476 14.4383 111.702 13.5598 111.94 12.6304C111.974 12.4958 112.009 12.3601 112.044 12.2237C112.844 8.68653 115.421 4.71012 118.185 0.928028C119.302 -0.600884 120.449 -2.09843 121.567 -3.55875C123.322 -5.84965 125.007 -8.04896 126.395 -10.1341L126.397 -10.1369C129.79 -15.2068 132.483 -20.107 133.56 -24.4558C134.622 -28.7426 134.077 -32.2756 131.294 -35.021C126.328 -39.9071 117.051 -41.8771 105.167 -41.2447C93.3833 -40.6176 79.4427 -37.4518 65.6169 -32.5592C51.797 -27.6687 38.1623 -21.0778 26.987 -13.6487C15.7735 -6.19419 7.19933 1.99691 3.27858 10.0249L3.27757 10.027C1.80658 13.027 2.23278 14.7379 3.17938 15.7519C4.29021 16.9418 6.603 17.7563 10.0585 17.8087C16.8602 17.9118 26.6979 15.027 35.1456 9.31764C43.5914 3.58301 54.055 -3.1421 64.8838 -6.75368C65.251 -6.89324 65.9008 -7.04743 66.5486 -7.19317C67.308 -7.36404 68.2734 -7.56637 69.311 -7.77993C69.8554 -7.89198 70.4197 -8.00715 70.9871 -8.12295C72.5978 -8.45164 74.2333 -8.78543 75.5067 -9.06705L80.7577 -10.2284L76.8658 -6.51692C75.4218 -5.13994 74.07 -3.03871 72.7762 -0.797711C72.4258 -0.190664 72.0755 0.434886 71.729 1.05387C70.8563 2.61242 70.007 4.12932 69.2366 5.20435L69.2295 5.2142L69.2223 5.22394C66.1403 9.38093 63.433 13.5064 61.1127 17.5778C56.9308 25.2589 55.6352 32.2656 57.0391 38.1546L57.0394 38.1556C58.4213 43.9712 64.0094 48.382 73.7211 50.1874C83.3982 51.9864 96.1737 50.9763 109.89 47.2256L109.898 47.2235C115.419 45.7457 121.478 43.4763 127.685 41.151C130.801 39.9838 133.955 38.8025 137.097 37.7002C141.752 36.0673 146.351 34.6219 150.652 33.7173C154.94 32.8152 159.026 32.4298 162.624 32.9873L162.625 32.9875C168.619 33.921 172.516 36.4788 173.724 40.533C174.891 44.448 173.318 49.092 170.092 53.6988M298.632 54.6632L168.863 52.8384M298.632 54.6632C275.034 72.7312 244.175 90.831 212.238 100.124M298.632 54.6632L299.544 55.8541C275.848 73.9979 244.821 92.2058 212.653 101.565M170.092 53.6988L168.863 52.8384M170.092 53.6988C170.092 53.6986 170.092 53.6985 170.093 53.6983L168.863 52.8384M170.092 53.6988C168.012 56.6728 165.78 59.6369 163.592 62.5417C162.843 63.537 162.099 64.5253 161.367 65.5047C158.486 69.3646 155.798 73.0993 153.68 76.6989C149.394 83.9833 147.751 90.1932 150.848 95.5246L150.85 95.5268C154.098 101.14 162.016 104.475 173.185 105.249C184.244 106.015 198.017 104.225 212.238 100.124M168.863 52.8384C166.799 55.7892 164.59 58.7228 162.407 61.6219C152.847 74.3173 143.785 86.3526 149.552 96.2782C156.84 108.871 183.976 109.836 212.653 101.565M212.238 100.124C212.236 100.124 212.235 100.124 212.234 100.125L212.653 101.565M212.238 100.124L212.653 101.565" fill="white" stroke="#191919" stroke-width="3"/>
</svg>
