<svg width="221" height="107" viewBox="0 0 221 107" fill="none" xmlns="http://www.w3.org/2000/svg">
<path d="M299.544 55.8541C328.313 33.8629 289.669 23.0157 260.757 45.1185C250.324 53.1243 237.907 61.4689 223.947 67.1053C219.424 69.0635 214.718 70.466 210.283 71.1769C208.744 71.4487 207.39 71.4013 206.435 71.0422L206.355 70.8498C205.366 67.563 213.942 59.0109 217.04 55.0651C223.644 46.6044 229.173 38.6603 231.024 30.8061C236.931 4.54335 201.738 -10.2228 152.884 3.96274C141.649 7.48489 130.42 11.3579 119.258 15.5607C111.852 18.1743 112.338 17.1559 113.503 12.5736C114.936 6.17776 123.07 -2.43352 127.644 -9.30274C134.471 -19.5057 138.909 -29.6173 132.347 -36.0889C110.574 -57.5166 18.3102 -24.1713 1.93074 9.3666C-4.55089 22.5859 18.6737 22.2616 35.9874 10.5592C44.4434 4.81762 54.7695 -1.80642 65.3946 -5.34281C66.2027 -5.67911 72.3581 -6.83443 75.8306 -7.60244C72.6001 -4.52172 70.0565 1.48523 68.0173 4.33058C64.8999 8.53526 62.1567 12.715 59.8024 16.8475C55.5042 24.737 54.0618 32.1342 55.58 38.5024C57.1617 45.1584 63.4748 49.8083 73.447 51.6622C83.4192 53.5161 96.4357 52.4597 110.286 48.6725C127.005 44.1974 149.018 32.397 162.394 34.4697C173.87 36.257 175.142 43.8705 168.863 52.8384C157.76 68.7106 142.468 84.086 149.552 96.2782C156.84 108.871 183.976 109.836 212.653 101.565C244.821 92.2058 275.848 73.9979 299.544 55.8541Z" fill="white"/>
</svg>
