<svg width="90" height="156" viewBox="0 0 90 156" fill="none" xmlns="http://www.w3.org/2000/svg">
<path d="M29.5235 138.638C31.8773 139.962 33.6811 141.96 35.662 143.737C36.0283 144.198 36.7462 144.379 36.7267 145.158C38.0669 145.289 38.8123 146.66 40.1372 146.817C40.245 147.067 40.1372 146.817 40.2753 146.957C40.4133 147.097 40.282 148.123 41.1266 147.659C42.3964 149.852 44.9171 150.089 46.8931 150.736C48.7576 151.469 50.7188 151.925 52.7149 152.092C55.5966 152.171 56.8735 150.858 56.4252 148.083C55.8167 144.429 54.8633 140.841 53.5778 137.367C52.6772 134.962 51.3977 132.589 50.5146 130.253C48.868 125.792 46.3769 121.795 44.4483 117.515C43.2079 114.782 41.2135 112.439 40.0808 109.641C39.8355 109.054 39.1258 108.506 39.7452 107.676C39.9032 107.409 40.0363 106.419 39.0628 107.121C38.506 107.512 38.4224 106.986 38.2712 106.652C37.8708 105.915 37.4977 105.172 37.1161 104.423C36.8778 103.863 36.438 103.428 36.181 102.881C33.4563 97.9439 28.965 94.4594 25.5832 90.0628C24.928 89.7796 24.3304 89.3785 23.8201 88.8794C22.8933 87.5879 21.8239 86.4049 20.632 85.353C20.2452 84.8726 19.9211 84.3448 19.6677 83.7825C19.6305 83.6675 19.6073 83.5485 19.5987 83.4279C19.5728 83.0988 19.8931 82.4401 19.0725 82.8839C18.0888 82.105 17.348 81.0616 16.937 79.8761C16.8282 79.4514 17.354 78.7401 16.3968 78.7079C15.6664 78.0078 15.1503 77.1142 14.9089 76.1316C14.6676 75.1491 14.7108 74.1181 15.0337 73.1592C15.1597 72.8949 15.3537 72.6688 15.5958 72.5042C16.131 72.3057 16.7024 72.224 17.2718 72.2647C17.7298 72.3108 18.1803 72.4136 18.613 72.5707C19.9825 73.6141 21.7829 74.1456 22.5358 75.9162C22.4959 76.7294 23.0947 77.0723 23.6747 77.4274C25.8642 79.811 27.8939 82.3367 29.7504 84.9879C30.0671 85.4587 30.3557 85.9478 30.6147 86.4526C33.1023 89.5527 34.9391 93.1041 37.5959 96.0951C40.4965 99.1678 43.6311 102.011 46.9716 104.599C49.7083 106.851 52.6898 108.788 55.8597 110.373C57.7236 111.328 59.8224 111.727 61.9067 111.524C63.5692 111.347 64.2922 110.322 64.485 108.681C65.0057 104.132 62.6587 100.441 61.017 96.5404C60.4316 94.8596 59.6751 93.2434 58.7595 91.7172C58.6237 91.1435 58.279 90.6411 57.7926 90.3079C55.7207 87.9189 54.9604 84.8655 53.6715 82.0569C53.4078 81.4759 53.1096 80.9113 52.7785 80.3659C52.5673 79.9857 52.3212 79.626 52.0433 79.2915C51.9355 79.1555 51.8437 79.0076 51.7698 78.8506C51.4791 78.0323 51.0189 77.2846 50.4193 76.6563C49.5806 75.8072 48.9647 74.7639 48.6267 73.6192C48.6133 73.235 48.5112 72.8591 48.3284 72.521C48.1455 72.1829 47.8868 71.8916 47.5726 71.6702C46.1018 69.7185 44.7453 67.6718 42.6448 66.2536C42.273 65.8454 41.9264 65.415 41.6066 64.9648C41.7267 64.0946 40.8679 63.8767 40.508 63.3265C38.6247 60.6192 36.2589 58.1376 34.7476 55.1159C33.4076 53.846 33.0629 52.073 32.4688 50.466C31.8746 48.8591 32.7887 47.6687 34.0077 46.7286C35.2268 45.7886 36.295 46.3398 37.2234 47.029C39.0223 48.2893 40.463 49.9953 41.4042 51.9799C40.3927 53.2172 42.0496 52.362 42.0711 52.8164C42.729 53.4155 43.2932 54.11 43.7449 54.8767C44.0356 55.3278 44.4067 55.7218 44.6939 56.1592C44.9085 56.5576 45.0449 56.9934 45.0958 57.4431C45.0841 58.6797 46.3537 59.0479 46.8185 59.9507C49.7383 64.2247 51.898 69.0365 56.0834 72.4097C57.1052 73.2355 58.4755 73.8261 59.082 75.1963C59.3647 75.41 59.6707 75.5912 59.9941 75.7364C62.4121 76.5987 64.0824 78.6453 66.5776 79.4951C68.631 80.1881 70.6163 80.9569 72.8367 80.5633C73.2935 80.5278 73.7221 80.3285 74.0435 80.002C74.365 79.6756 74.5576 79.2439 74.586 78.7866C74.8455 76.9151 74.7636 75.012 74.3441 73.1697C73.3997 68.8458 72.0646 64.6167 70.3553 60.5343C69.5256 58.5205 68.7777 56.4274 67.751 54.4714C66.1833 51.4861 63.3464 49.9574 60.8789 47.9617C58.0184 45.6288 54.9499 43.5097 52.6876 40.5198C52.0807 39.4775 51.2459 38.5859 50.2457 37.9117C49.9259 37.7245 49.6303 37.4987 49.3654 37.2394C48.1343 35.511 46.8127 33.8568 45.5389 32.1612C44.465 30.0494 43.1787 27.9628 42.0669 25.817C41.4483 24.6353 41.1349 23.3177 41.1553 21.9841C41.1757 20.6505 41.5292 19.3432 42.1837 18.181C42.8495 17.6172 43.5823 17.1377 44.3655 16.7535C45.0076 16.5123 45.6968 16.4232 46.3791 16.4931C47.884 16.6404 48.9773 17.6596 50.2231 18.3624C51.1236 18.9244 51.9127 19.6478 52.5507 20.4961C52.9676 21.1039 53.4512 21.6631 53.9924 22.1633C55.0705 23.7888 56.2642 25.3345 57.5642 26.7885C58.1479 27.4711 57.6104 28.5359 58.6381 28.9003C60.1871 29.2481 60.489 30.7401 61.2754 31.7868C61.6972 32.3503 61.8746 33.0713 62.31 33.6313C65.1404 36.7019 66.5829 40.566 68.5211 44.1425C69.1668 45.3407 69.7438 46.5748 70.249 47.8387C71.0093 49.695 72.846 50.2829 74.4913 50.9782C76.7221 51.8947 79.1075 52.3762 81.5191 52.3969C82.0869 52.4193 82.6119 53.0439 83.2139 52.4591C85.2319 49.9932 84.3675 47.3313 83.4066 44.8913C82.5743 42.7249 82.1385 40.3402 80.4355 38.5647C80.2146 38.3293 80.3547 37.9358 80.3734 37.6098C80.392 37.2838 80.9347 36.5244 79.8899 36.4636C79.4514 35.9766 79.1362 35.3915 78.971 34.7573C77.3686 30.8101 75.1522 27.1734 73.1908 23.4203C72.8681 22.7877 72.5779 22.1393 72.2878 21.491C72.0166 20.7515 71.6505 20.0503 71.1986 19.4051C69.5798 17.9584 69.5866 15.5917 68.1781 14.0255C67.9399 12.5828 66.9527 11.5218 66.2255 10.3358C64.7732 8.31366 64.1367 5.91461 62.8229 3.83507C62.5868 3.47838 62.4871 3.04857 62.5419 2.62435C62.5968 2.20012 62.8026 1.80985 63.1216 1.52493C65.1101 0.482654 66.6087 0.719203 67.5745 2.52293C69.3169 5.76276 71.8455 8.53839 73.0272 12.097C73.1538 12.3347 73.2753 12.581 73.3831 12.8307C74.2303 14.5991 75.3903 16.1925 76.27 17.9453C76.3946 18.1347 76.4792 18.3476 76.5189 18.5709C76.5585 18.7941 76.5523 19.0231 76.5005 19.2439C77.5455 21.6989 78.9769 23.9527 79.875 26.5183C80.2922 27.7764 81.7128 29.0476 82.3368 30.4863C83.7013 33.6185 85.0215 36.8059 86.4561 39.8983C87.4559 42.238 88.2588 44.6571 88.8562 47.1303C89.5115 49.5173 89.1046 52.9719 86.8374 54.4652C85.7782 55.1745 85.4395 54.1371 85.1709 54.257C83.6277 54.9005 86.2902 55.036 85.4444 55.5811C84.7437 56.0531 83.9277 56.3252 83.084 56.3683C80.2512 56.5178 77.4118 56.2465 74.6586 55.5632C74.2928 55.4744 73.9034 55.4647 73.4949 55.4088C75.4783 60.3439 77.202 65.3795 78.659 70.4949C79.4202 73.5659 79.6836 76.7393 79.4391 79.8938C79.2203 82.9718 75.7502 86.1236 71.0847 85.4064C66.5289 84.6304 62.1971 82.8705 58.391 80.2493C60.0757 83.2922 61.1019 86.6426 63.4603 89.3523C64.2942 90.2993 64.2755 92.3917 65.1314 93.5958C66.7553 95.9171 67.395 98.5854 68.3856 101.113C69.672 104.396 70.596 107.86 69.0987 111.39C68.2599 113.122 66.8966 114.545 65.2026 115.457C63.5087 116.369 61.5704 116.724 59.663 116.472C55.368 115.653 51.3573 113.739 48.0201 110.914C47.103 110.08 46.0255 109.442 44.8536 109.039C44.7688 108.947 44.7018 108.841 44.6562 108.725C44.4321 109.103 44.6587 109.447 44.7003 109.808C46.2717 112.552 47.9818 115.238 49.3719 118.071C51.0976 121.673 52.7908 125.291 54.7028 128.794C55.7001 130.867 56.5921 132.99 57.3757 135.153C58.5983 138.073 59.9054 141.067 60.0719 144.338C60.2571 145.782 60.5451 147.211 60.9337 148.614C61.2872 149.253 60.1826 149.529 60.5448 150.173C60.0088 151.785 60.2377 153.989 57.828 154.271C56.5854 154.407 56.1638 155.924 55.1499 155.869C52.0824 155.692 48.804 156.4 46.088 154.432C45.3543 153.904 44.1127 155.098 43.9153 153.587C42.7371 153.005 41.2794 153.014 40.3451 151.903C37.5148 150.382 34.884 148.516 32.513 146.347C29.3483 143.311 25.8425 140.596 23.0103 137.234C20.969 134.793 18.5827 132.602 16.6789 129.929C16.063 129.006 14.689 128.657 14.3575 127.392C14.1792 126.81 13.6113 126.474 13.3766 125.928C10.661 123.448 8.87207 120.169 6.18041 117.669C5.76829 117.285 5.78687 116.646 5.7768 116.093C5.7768 116.093 5.68214 116.037 5.64772 116.017C5.58721 116.036 5.5305 116.065 5.48016 116.104C4.93467 116.083 4.81375 115.639 4.63486 115.255C3.561 113.143 1.47765 111.735 0.848186 109.363C0.614059 108.62 0.264222 107.739 1.30857 107.428C2.35292 107.116 2.89081 108.19 3.38082 108.992C6.82391 112.716 9.89845 116.768 13.1982 120.616C14.3326 121.938 16.2482 122.805 16.6364 124.976C16.7746 125.743 18.495 126.076 19.0568 127.13C19.5961 126.67 19.8021 127.304 19.872 127.519C20.8091 130.294 24.1524 131.321 24.7563 134.305C26.5563 134.464 26.8269 136.46 28.1928 137.176C28.5234 137.301 28.8188 137.504 29.0531 137.768C29.2875 138.032 29.4538 138.35 29.5376 138.693C29.0359 139.128 28.3827 139.171 27.8262 139.621C28.3936 139.271 29.0859 139.181 29.5235 138.638Z" fill="#191919"/>
</svg>
