<svg width="151" height="99" viewBox="0 0 151 99" fill="none" xmlns="http://www.w3.org/2000/svg">
<path d="M22.8675 22.494C21.1003 24.5361 18.7827 25.9049 16.6458 27.4911C16.121 27.758 15.8003 28.4253 15.0411 28.2508C14.6451 29.5379 13.1528 29.9946 12.7346 31.2615C12.4683 31.3173 12.7345 31.2615 12.57 31.3688C12.4054 31.4762 11.4259 31.1427 11.7125 32.0629C9.31021 32.8695 8.57434 35.2921 7.54584 37.0992C6.45613 38.7799 5.61729 40.6105 5.05572 42.5332C4.4028 45.3411 5.43402 46.8543 8.24337 46.9691C11.9452 47.1022 15.6514 46.8842 19.3121 46.318C21.8479 45.9154 24.4285 45.1354 26.8936 44.7363C31.594 44.0134 36.0078 42.3703 40.5864 41.3348C43.5123 40.665 46.2064 39.1784 49.1737 38.6269C49.7977 38.5037 50.4764 37.9177 51.1663 38.6904C51.3962 38.8984 52.34 39.2265 51.8465 38.1325C51.5747 37.5089 52.1068 37.5319 52.4638 37.4504C53.2658 37.2051 54.0691 36.988 54.8792 36.7635C55.4749 36.6418 55.9887 36.2976 56.5763 36.155C61.958 34.4707 66.2689 30.7653 71.252 28.3291C71.6603 27.7437 72.1726 27.2382 72.7635 26.8378C74.2141 26.1874 75.5867 25.3756 76.8553 24.4177C77.4033 24.1346 77.9851 23.9224 78.5867 23.7863C78.7068 23.7728 78.8281 23.7739 78.948 23.7895C79.2756 23.8298 79.8572 24.2751 79.5861 23.3824C80.5456 22.5741 81.716 22.0564 82.9596 21.8903C83.3974 21.8684 83.9895 22.5256 84.2121 21.5942C85.0439 21.0182 86.0225 20.6909 87.0335 20.6505C88.0445 20.6101 89.0461 20.8583 89.9212 21.3661C90.1551 21.5423 90.3379 21.7775 90.4508 22.0477C90.5385 22.6117 90.5045 23.1879 90.351 23.7377C90.2144 24.1773 90.0238 24.5982 89.7834 24.9908C88.4877 26.1244 87.6075 27.7825 85.7222 28.1668C84.9334 27.9655 84.4778 28.4838 84.0141 28.9812C81.2414 30.6509 78.3614 32.1355 75.393 33.4254C74.8684 33.6418 74.3316 33.827 73.7852 33.98C70.251 35.7988 66.4044 36.8897 62.9433 38.896C59.3534 41.1248 55.9419 43.6289 52.7395 46.3856C49.9864 48.6177 47.4933 51.1526 45.3072 53.9423C43.9997 55.5781 43.1891 57.5548 42.9717 59.6377C42.814 61.3022 43.6737 62.2151 45.2429 62.7316C49.5969 64.1499 53.6819 62.5869 57.8318 61.7569C59.5956 61.5187 61.3303 61.1001 63.0086 60.5075C63.5978 60.489 64.159 60.2515 64.5825 59.8414C67.337 58.2881 70.4808 58.1526 73.4901 57.4503C74.112 57.3078 74.7248 57.1283 75.3253 56.9127C75.74 56.7817 76.1416 56.6124 76.5249 56.4069C76.6796 56.3283 76.8429 56.2679 77.0115 56.2268C77.8713 56.1053 78.6959 55.8036 79.4311 55.3415C80.4306 54.6891 81.5759 54.294 82.765 54.1912C83.1441 54.2548 83.5328 54.2298 83.9006 54.1181C84.2685 54.0064 84.6055 53.8111 84.8852 53.5474C87.0912 52.4957 89.3675 51.5751 91.1764 49.7999C91.6506 49.5172 92.1416 49.2634 92.6465 49.0399C93.4752 49.3313 93.8602 48.5333 94.4711 48.2905C97.4999 46.9854 100.404 45.1626 103.666 44.2849C105.178 43.2254 106.984 43.2415 108.678 42.9801C110.371 42.7187 111.355 43.8519 112.032 45.2341C112.71 46.6163 111.957 47.553 111.096 48.3251C109.502 49.8362 107.543 50.9073 105.41 51.4335C104.4 50.1954 104.907 51.9896 104.458 51.92C103.739 52.4451 102.946 52.8593 102.105 53.1489C101.605 53.3437 101.145 53.6286 100.659 53.8228C100.225 53.9535 99.7712 54.0002 99.3204 53.9603C98.111 53.702 97.4968 54.8725 96.5193 55.1478C91.7485 57.1557 86.6024 58.3115 82.4618 61.7393C81.4486 62.5757 80.5964 63.8005 79.1327 64.1213C78.8668 64.3557 78.6282 64.6193 78.4214 64.9072C77.0938 67.1045 74.7549 68.3326 73.4241 70.6079C72.3352 72.4817 71.1856 74.2736 71.1281 76.5279C71.0717 76.9826 71.1814 77.4423 71.4372 77.8224C71.6929 78.2026 72.0774 78.4775 72.5198 78.5966C74.3019 79.2245 76.183 79.5241 78.072 79.4808C82.4973 79.4185 86.9079 78.9545 91.2493 78.0945C93.3881 77.6834 95.5884 77.3683 97.71 76.7528C100.948 75.8125 103.012 73.3378 105.46 71.3183C108.317 68.9811 111.006 66.3974 114.388 64.7774C115.53 64.3907 116.57 63.7507 117.431 62.9052C117.678 62.6292 117.958 62.3846 118.265 62.1769C120.205 61.3155 122.089 60.3507 124.005 59.441C126.289 58.8103 128.59 57.9663 130.915 57.3052C132.196 56.9349 133.55 56.8909 134.852 57.1771C136.155 57.4633 137.365 58.0707 138.374 58.9439C138.793 59.7088 139.117 60.5226 139.337 61.3668C139.445 62.0441 139.395 62.7372 139.19 63.3918C138.745 64.8371 137.528 65.7049 136.591 66.7853C135.861 67.5555 134.994 68.1843 134.036 68.6402C133.357 68.9274 132.712 69.2896 132.114 69.7201C130.306 70.452 128.553 71.3131 126.869 72.2968C126.084 72.7324 125.148 71.9932 124.586 72.9275C123.936 74.3759 122.413 74.3739 121.231 74.9356C120.594 75.2363 119.852 75.2662 119.217 75.5811C115.643 77.7417 111.569 78.3839 107.677 79.5691C106.374 79.9627 105.05 80.2816 103.711 80.5244C101.74 80.8988 100.797 82.5813 99.7875 84.0547C98.4442 86.0577 97.4962 88.299 96.9945 90.6579C96.8592 91.2098 96.1424 91.5995 96.5953 92.3062C98.6088 94.7757 101.39 94.4601 103.972 94.0056C106.261 93.6224 108.685 93.6715 110.765 92.3571C111.039 92.1876 111.397 92.4035 111.713 92.4868C112.028 92.5702 112.664 93.2536 112.932 92.2419C113.497 91.9094 114.133 91.7174 114.788 91.6821C118.975 90.8998 122.981 89.454 127.05 88.2811C127.735 88.0913 128.428 87.9364 129.121 87.7814C129.9 87.6634 130.66 87.4446 131.382 87.1306C133.123 85.8331 135.441 86.3122 137.257 85.2447C138.718 85.2992 139.955 84.5437 141.262 84.0679C143.533 83.0484 146.011 82.9036 148.311 82.0314C148.708 81.8712 149.149 81.8593 149.553 81.9977C149.958 82.1361 150.3 82.4157 150.515 82.7852C151.139 84.9417 150.608 86.363 148.648 86.9492C145.126 88.0099 141.901 89.9336 138.178 90.3812C137.92 90.4577 137.655 90.5276 137.388 90.5834C135.487 91.0605 133.694 91.8792 131.801 92.3913C131.59 92.4755 131.365 92.516 131.138 92.5103C130.911 92.5046 130.688 92.4527 130.482 92.3579C127.868 92.8918 125.374 93.8446 122.681 94.2125C121.364 94.3702 119.835 95.5084 118.301 95.8327C114.959 96.5445 111.573 97.2019 108.256 97.9903C105.764 98.503 103.233 98.8069 100.691 98.8986C98.2208 99.0642 94.9169 97.9759 93.9063 95.4563C93.4227 94.2768 94.5068 94.152 94.4429 93.8649C94.1204 92.2243 93.4562 94.8062 93.0908 93.8686C92.7682 93.0878 92.6645 92.2339 92.7906 91.3985C93.2096 88.5929 94.0423 85.8648 95.2614 83.3034C95.4214 82.9627 95.5086 82.5831 95.645 82.194C90.4132 83.1523 85.1349 83.8362 79.8317 84.2428C76.6705 84.3756 73.5084 84.0003 70.4662 83.131C67.4938 82.3022 65.0981 78.2729 66.7322 73.8444C68.4019 69.5352 70.991 65.6418 74.3193 62.4356C71.0013 63.479 67.5135 63.8157 64.3876 65.5858C63.2932 66.2139 61.2466 65.7779 59.8959 66.3762C57.2972 67.5041 54.5549 67.5983 51.8807 68.0645C48.4064 68.6696 44.8275 68.8835 41.6678 66.7118C40.1386 65.5442 39.0164 63.9243 38.4606 62.0824C37.9048 60.2404 37.9438 58.2702 38.572 56.4517C40.2312 52.4064 42.9076 48.8586 46.3418 46.1524C47.3418 45.4201 48.182 44.4917 48.8111 43.4239C48.9178 43.359 49.0357 43.3147 49.1586 43.2933C48.8324 42.998 48.4507 43.1516 48.088 43.1201C45.0861 44.1123 42.1127 45.2518 39.0585 46.0483C35.1848 47.0203 31.3022 47.9573 27.4881 49.1316C25.2573 49.695 22.9995 50.1454 20.7233 50.4814C17.6176 51.0964 14.4233 51.7796 11.1846 51.2898C9.73276 51.1831 8.27519 51.1801 6.82294 51.2808C6.12587 51.4996 6.07623 50.3622 5.37244 50.5885C3.90008 49.7415 1.69456 49.5258 1.89969 47.1085C2.01461 45.8637 0.612494 45.1478 0.867924 44.1651C1.65434 41.1949 1.61452 37.841 4.08555 35.5726C4.74877 34.9589 3.82664 33.504 5.34713 33.6122C6.152 32.5738 6.43468 31.1438 7.70986 30.4501C9.76521 27.9803 12.119 25.7749 14.7172 23.8845C18.3238 21.3896 21.6841 18.4963 25.5439 16.3922C28.3428 14.8791 30.9667 12.9783 33.9659 11.6464C34.9928 11.2271 35.6088 9.95029 36.9149 9.87807C37.5209 9.81953 37.9638 9.33017 38.5454 9.20913C41.5171 7.04318 45.0872 5.94477 48.0744 3.80636C48.5325 3.47908 49.1557 3.625 49.6988 3.72535C49.6988 3.72535 49.7726 3.64379 49.7994 3.61413C49.793 3.55107 49.7756 3.48964 49.7479 3.43263C49.8772 2.90227 50.3359 2.8723 50.7487 2.77384C53.0323 2.14313 54.8278 0.382747 57.2774 0.239351C58.0521 0.158237 58.9854 -0.00866397 59.082 1.07682C59.1786 2.16229 58.019 2.475 57.1358 2.79515C52.7996 5.42563 48.2155 7.6295 43.7861 10.0947C42.2637 10.9423 41.0319 12.6463 38.8274 12.5934C38.0477 12.5756 37.378 14.1949 36.2339 14.5352C36.5763 15.1553 35.9146 15.2308 35.6893 15.2562C32.7835 15.6206 31.11 18.6917 28.0655 18.6878C27.5501 20.4197 25.5398 20.2863 24.5658 21.4818C24.378 21.7811 24.12 22.0299 23.8142 22.2068C23.5084 22.3837 23.1641 22.4832 22.8111 22.4968C22.4849 21.9184 22.5729 21.2697 22.2438 20.6348C22.4733 21.2605 22.423 21.9568 22.8675 22.494Z" fill="white"/>
</svg>
